
<svg xmlns="http://www.w3.org/2000/svg" width="420" height="364">
  <style>
    text {
      font-family: JetBrains Mono, monospace;
      font-size: 13px;
      fill: #00FF9C;
    }
    rect {
      fill: #00FF9C;
    }
    .bg {
      fill: #0b0b0b;
      stroke: #00FF9C;
      stroke-width: 1;
      rx: 10;
    }
  </style>

  <rect class="bg" x="5" y="5" width="410" height="334" />
  
      <text x="20" y="50">Morning</text>
      <rect x="140" y="38" width="0" height="10" />
      <text x="370" y="50">0</text>
    
      <text x="20" y="74">Daytime</text>
      <rect x="140" y="62" width="0" height="10" />
      <text x="370" y="74">0</text>
    
      <text x="20" y="98">Evening</text>
      <rect x="140" y="86" width="0" height="10" />
      <text x="370" y="98">0</text>
    
      <text x="20" y="122">Night</text>
      <rect x="140" y="110" width="220" height="10" />
      <text x="370" y="122">213</text>
    
      <text x="20" y="166">Monday</text>
      <rect x="140" y="154" width="0" height="10" />
      <text x="370" y="166">0</text>
    
      <text x="20" y="190">Tuesday</text>
      <rect x="140" y="178" width="195" height="10" />
      <text x="370" y="190">55</text>
    
      <text x="20" y="214">Wednesday</text>
      <rect x="140" y="202" width="188" height="10" />
      <text x="370" y="214">53</text>
    
      <text x="20" y="238">Thursday</text>
      <rect x="140" y="226" width="220" height="10" />
      <text x="370" y="238">62</text>
    
      <text x="20" y="262">Friday</text>
      <rect x="140" y="250" width="152" height="10" />
      <text x="370" y="262">43</text>
    
      <text x="20" y="286">Saturday</text>
      <rect x="140" y="274" width="0" height="10" />
      <text x="370" y="286">0</text>
    
      <text x="20" y="310">Sunday</text>
      <rect x="140" y="298" width="0" height="10" />
      <text x="370" y="310">0</text>
    
</svg>
